<?xml version="1.0" encoding="utf-8"?>
<!-- Generator: Adobe Illustrator 23.1.0, SVG Export Plug-In . SVG Version: 6.00 Build 0)  -->
<svg version="1.1" id="Capa_1" xmlns="http://www.w3.org/2000/svg" xmlns:xlink="http://www.w3.org/1999/xlink" x="0px" y="0px"
	 viewBox="0 0 109.6 109.6" style="enable-background:new 0 0 109.6 109.6;" xml:space="preserve">
<style type="text/css">
	.st0{fill:#593459;}
</style>
<g>
	<g>
		<g>
			<ellipse class="st0" cx="99.5" cy="28.9" rx="1.5" ry="0.8"/>
		</g>
		<g>
			<path class="st0" d="M106.6,17.2H67.4c-1.7,0-3,1.4-3,3v10.9h6v-8.4h33.1v9H75.2V40h28.4v1.5H75.2v7.5h28.4v1.5H75.2v34.2H64.4
				v4.7c0,1.7,1.4,3,3,3h39.1c1.7,0,3-1.4,3-3V20.2C109.6,18.5,108.2,17.2,106.6,17.2z M87,72.5c-2.5,0-4.5-2-4.5-4.5
				c0-2.5,2-4.5,4.5-4.5c2.5,0,4.5,2,4.5,4.5S89.5,72.5,87,72.5z"/>
		</g>
		<g>
			<rect y="34.7" class="st0" width="71.6" height="46.5"/>
		</g>
		<g>
			<polygon class="st0" points="25.1,85.3 17.9,92.4 53.7,92.4 46.5,85.3 			"/>
		</g>
	</g>
</g>
</svg>
