<?xml version="1.0" encoding="utf-8"?>
<!-- Generator: Adobe Illustrator 23.1.0, SVG Export Plug-In . SVG Version: 6.00 Build 0)  -->
<svg version="1.1" id="Capa_1" xmlns="http://www.w3.org/2000/svg" xmlns:xlink="http://www.w3.org/1999/xlink" x="0px" y="0px"
	 viewBox="0 0 180 180" style="enable-background:new 0 0 180 180;" xml:space="preserve">
<style type="text/css">
	.st0{fill:#593459;}
</style>
<path class="st0" d="M180,169.5V10.5c-2.9,1.6-6.7,1.2-9.2-1.3s-2.9-6.2-1.3-9.2H31.9v2.6c0,2.3-1.9,4.2-4.2,4.2
	c-2.3,0-4.2-1.9-4.2-4.2V0h-13c1.6,2.9,1.2,6.7-1.3,9.2c-2.5,2.5-6.2,2.9-9.2,1.3v159.1c2.9-1.6,6.7-1.2,9.2,1.3
	c2.5,2.5,2.9,6.2,1.3,9.2h13v-2.6c0-2.3,1.9-4.2,4.2-4.2c2.3,0,4.2,1.9,4.2,4.2v2.6h137.6c-1.6-2.9-1.2-6.7,1.3-9.2
	C173.3,168.3,177.1,167.9,180,169.5z M157.9,136.3c0,11.9-9.7,21.7-21.7,21.7h-22.4c-3.1,0-5.6-2.5-5.6-5.6c0-3.1,2.5-5.6,5.6-5.6
	h22.4c5.8,0,10.4-4.7,10.4-10.4V43.7c0-5.8-4.7-10.4-10.4-10.4H43.7c-5.8,0-10.4,4.7-10.4,10.4v92.6c0,5.8,4.7,10.4,10.4,10.4h22.4
	c3.1,0,5.6,2.5,5.6,5.6c0,3.1-2.5,5.6-5.6,5.6H43.7c-11.9,0-21.7-9.7-21.7-21.7V43.7c0-11.9,9.7-21.7,21.7-21.7h92.6
	c11.9,0,21.7,9.7,21.7,21.7V136.3z M52.5,134.2c-3.7,0-6.7-3-6.7-6.7v-75c0-3.7,3-6.7,6.7-6.7h75c3.7,0,6.7,3,6.7,6.7v75
	c0,3.7-3,6.7-6.7,6.7L52.5,134.2L52.5,134.2z M76.3,78.6v4.2h-6.5v-4.7c0-3.1-1.4-4.3-3.6-4.3c-2.2,0-3.6,1.2-3.6,4.3v23.6
	c0,3.1,1.4,4.2,3.6,4.2c2.2,0,3.6-1.1,3.6-4.2v-6.2h6.5v5.8c0,7-3.5,11-10.2,11s-10.2-4-10.2-11V78.6c0-7,3.5-11,10.2-11
	S76.3,71.6,76.3,78.6z M90.6,68.2H80.5v43.6h6.9V95.4h3.2c6.9,0,10.2-3.8,10.2-10.8v-5.7C100.8,72,97.4,68.2,90.6,68.2z M94,85
	c0,3.1-1.2,4.1-3.4,4.1h-3.2V74.4h3.2c2.2,0,3.4,1,3.4,4.1C94,78.5,94,85,94,85z M117.6,68.2h6.5v33.2c0,7-3.5,11-10.2,11
	s-10.2-4-10.2-11V68.2h6.9v33.7c0,3.1,1.4,4.2,3.6,4.2c2.2,0,3.6-1.1,3.6-4.2L117.6,68.2L117.6,68.2z"/>
</svg>
