<?xml version="1.0" encoding="utf-8"?>
<!-- Generator: Adobe Illustrator 23.1.0, SVG Export Plug-In . SVG Version: 6.00 Build 0)  -->
<svg version="1.1" id="Capa_1" xmlns="http://www.w3.org/2000/svg" xmlns:xlink="http://www.w3.org/1999/xlink" x="0px" y="0px"
	 viewBox="0 0 89.5 89.5" style="enable-background:new 0 0 89.5 89.5;" xml:space="preserve">
<style type="text/css">
	.st0{fill:#593459;}
</style>
<g>
	<g>
		<path class="st0" d="M57.3,38c5.4-2.3,12.5-3.7,22.9-3.4c-5-6.3-9.4-10.9-12.1-15.6c-7.4,4.2-12.8,8.6-16.8,13.1
			c-1.8-1-3.9-1.6-6.1-1.6c0.7-5.8,3-12.6,8.5-21.5c-6,0-11.9,0-17.9,0c-1.2,10.6-0.4,17.9,1.4,23.7c-1.8,1.2-3.4,2.7-4.5,4.6
			c-4.7-3.4-9.4-8.2-14.3-15c-2.5,5.5-4.9,9.2-9,12.3c8.5,6.3,15.3,9.4,21.2,10.7c0.1,2.2,0.7,4.3,1.7,6.2
			c-5.4,2.3-12.5,3.7-22.9,3.4c5,6.3,9.4,10.9,12.1,15.6c7.4-4.2,12.8-8.6,16.8-13.1c1.8,1,3.9,1.6,6.1,1.6
			c-0.7,5.8-3,12.6-8.5,21.5c6,0,11.9,0,17.9,0c1.3-10.6,0.4-17.9-1.4-23.7c1.8-1.2,3.4-2.7,4.5-4.6c4.7,3.4,9.4,8.2,14.3,15
			c2.5-5.5,4.9-9.2,9-12.3c-8.5-6.3-15.3-9.4-21.2-10.7C58.9,41.9,58.3,39.9,57.3,38z M44.7,49.2c-2.5,0-4.5-2-4.5-4.5
			s2-4.5,4.5-4.5c2.5,0,4.5,2,4.5,4.5C49.2,47.2,47.2,49.2,44.7,49.2z"/>
		<path class="st0" d="M82.3,0H7.2C3.2,0,0,3.2,0,7.2v75.2c0,3.9,3.2,7.2,7.2,7.2h75.2c3.9,0,7.2-3.2,7.2-7.2V7.2
			C89.5,3.2,86.3,0,82.3,0z M6.3,3.6c1.5,0,2.7,1.2,2.7,2.7S7.7,8.9,6.3,8.9S3.6,7.7,3.6,6.3S4.8,3.6,6.3,3.6z M6.3,85.9
			c-1.5,0-2.7-1.2-2.7-2.7s1.2-2.7,2.7-2.7s2.7,1.2,2.7,2.7C8.9,84.7,7.7,85.9,6.3,85.9z M44.7,84.1C23,84.1,5.4,66.5,5.4,44.7
			S23,5.4,44.7,5.4S84.1,23,84.1,44.7S66.5,84.1,44.7,84.1z M83.2,85.9c-1.5,0-2.7-1.2-2.7-2.7s1.2-2.7,2.7-2.7s2.7,1.2,2.7,2.7
			C85.9,84.7,84.7,85.9,83.2,85.9z M83.2,8.9c-1.5,0-2.7-1.2-2.7-2.7s1.2-2.7,2.7-2.7s2.7,1.2,2.7,2.7S84.7,8.9,83.2,8.9z"/>
	</g>
</g>
</svg>
