<?xml version="1.0" encoding="utf-8"?>
<!-- Generator: Adobe Illustrator 23.1.0, SVG Export Plug-In . SVG Version: 6.00 Build 0)  -->
<svg version="1.1" id="Capa_1" xmlns="http://www.w3.org/2000/svg" xmlns:xlink="http://www.w3.org/1999/xlink" x="0px" y="0px"
	 viewBox="0 0 233 233" style="enable-background:new 0 0 233 233;" xml:space="preserve">
<style type="text/css">
	.st0{fill:#593459;}
</style>
<path class="st0" d="M0,38.4h36.1v144.7H20.4v-13H14V133h6.4v-27H14V68.8h6.4V54.1H0V38.4z M233,87.7v81.9c0,6.9-5.6,12.6-12.6,12.6
	h0v12.5h-80.2v-12.5h-7.6v12.5H52.4v-12.5h-7v-107h175.1C227.4,75.1,233,80.7,233,87.7z M62.5,181.5h-4v9h4V181.5z M70.5,181.5h-4v9
	h4V181.5z M78.5,181.5h-4v9h4V181.5z M86.5,181.5h-4v9h4V181.5z M89,128.8H79v3.9h5.6v1.9c-2.2,2.5-4.6,3.8-7.2,3.8
	c-1.2,0-2.2-0.2-3.2-0.7c-1-0.5-1.9-1.1-2.6-2c-0.7-0.8-1.3-1.8-1.7-2.9s-0.6-2.3-0.6-3.6c0-1.2,0.2-2.4,0.6-3.5
	c0.4-1.1,0.9-2.1,1.6-3c0.7-0.9,1.5-1.5,2.5-2c1-0.5,2-0.7,3.2-0.7c1.5,0,2.8,0.4,4.1,1.1c1.3,0.7,2.2,1.8,2.9,3.1l4-3
	c-0.9-1.8-2.3-3.3-4.2-4.4c-1.9-1.1-4.1-1.6-6.7-1.6c-1.9,0-3.7,0.4-5.3,1.1c-1.6,0.7-3.1,1.7-4.3,3c-1.2,1.3-2.2,2.7-2.8,4.4
	s-1,3.5-1,5.3c0,2,0.3,3.9,1,5.6c0.7,1.7,1.6,3.2,2.8,4.5c1.2,1.3,2.6,2.3,4.2,3c1.6,0.7,3.3,1.1,5.1,1.1c2.9,0,5.5-1.1,7.7-3.3v3.1
	H89L89,128.8L89,128.8z M94.5,181.5h-4v9h4V181.5z M102.5,181.5h-4v9h4V181.5z M110.5,181.5h-4v9h4V181.5z M112.1,115.4H93.6V143
	h5.4v-11.4h11v-4.4h-11v-7.1h13.2L112.1,115.4L112.1,115.4z M118.5,181.5h-4v9h4V181.5z M126.5,181.5h-4v9h4V181.5z M128.4,129.4
	l9.8-14h-5.8l-6.8,10.3l-6.9-10.3h-5.8l9.8,14l-9.5,13.6h5.8l6.6-9.9l6.5,9.9h5.8L128.4,129.4z M150.4,181.5h-4v9h4V181.5z
	 M158.4,181.5h-4v9h4V181.5z M166.4,181.5h-4v9h4V181.5z M174.4,181.5h-4v9h4V181.5z M182.4,181.5h-4v9h4V181.5z M190.4,181.5h-4v9
	h4V181.5z M198.4,181.5h-4v9h4V181.5z M206.4,181.5h-4v9h4V181.5z M214.4,181.5h-4v9h4V181.5z M217.7,130.7c0-19.3-15.7-35-35-35
	s-35,15.7-35,35c0,19.3,15.7,35,35,35S217.7,150,217.7,130.7z M201.6,131.3c0.9-0.5,1.7-0.9,2.6-1.4c0.8-0.5,1.7-1,2.5-1.4
	c0.8-0.5,1.6-0.9,2.3-1.4c0.1,0,0.1-0.1,0.2-0.1c-0.9-6.7-4.3-12.6-9.3-16.7c-0.1,0.1-0.1,0.2-0.2,0.3c-0.3,0.4-0.7,0.9-1,1.4
	c-0.4,0.5-0.8,1.1-1.3,1.7c-0.5,0.6-1,1.2-1.5,1.9c-0.5,0.6-1.1,1.3-1.6,2c-0.6,0.7-1.2,1.3-1.8,2c0,0,0,0,0,0c0-0.7,0.1-1.3,0.1-2
	c0.1-1,0.1-1.9,0.1-2.9c0-1,0.1-2,0.1-2.9c0-1,0-1.9,0-2.8c0-0.9,0-1.8,0-2.7c0-0.1,0-0.1,0-0.2c-3.1-1.3-6.5-1.9-10-1.9
	c-3.2,0-6.3,0.6-9.1,1.6c0,0.1,0.1,0.2,0.1,0.3c0.2,0.5,0.4,1,0.7,1.6c0.2,0.6,0.5,1.3,0.8,2c0.3,0.7,0.6,1.4,0.9,2.2
	c0.3,0.8,0.6,1.6,0.9,2.4c0.3,0.8,0.6,1.7,0.9,2.5c0,0,0,0,0,0c-0.6-0.4-1.1-0.7-1.7-1.1c-0.8-0.5-1.6-1-2.5-1.5
	c-0.8-0.5-1.7-1-2.5-1.5c-0.8-0.5-1.7-1-2.5-1.4c-0.8-0.5-1.6-0.9-2.3-1.3c-0.1,0-0.1-0.1-0.2-0.1c-5.1,4-8.7,9.8-9.8,16.4
	c0.1,0,0.2,0,0.4,0c0.5,0.1,1.1,0.1,1.7,0.2c0.6,0.1,1.4,0.2,2.1,0.3c0.7,0.1,1.5,0.2,2.4,0.4c0.8,0.1,1.7,0.3,2.5,0.4
	c0.9,0.2,1.8,0.3,2.6,0.5c0,0,0,0,0,0c-0.6,0.3-1.2,0.6-1.8,0.9c-0.9,0.4-1.7,0.9-2.6,1.4c-0.9,0.5-1.7,0.9-2.6,1.4
	c-0.8,0.5-1.7,1-2.5,1.4c-0.8,0.5-1.6,0.9-2.3,1.4c-0.1,0-0.1,0.1-0.2,0.1c0.9,6.7,4.3,12.6,9.3,16.7c0.1-0.1,0.1-0.2,0.2-0.3
	c0.3-0.4,0.7-0.9,1-1.4c0.4-0.5,0.8-1.1,1.3-1.7c0.5-0.6,1-1.2,1.5-1.9c0.5-0.6,1.1-1.3,1.6-2c0.6-0.7,1.2-1.3,1.8-2c0,0,0,0,0,0
	c0,0.7-0.1,1.3-0.1,2c-0.1,1-0.1,1.9-0.1,2.9c0,1-0.1,2-0.1,2.9c0,1,0,1.9,0,2.8c0,0.9,0,1.8,0,2.7c0,0.1,0,0.1,0,0.2
	c3.1,1.3,6.5,1.9,10,1.9c3.2,0,6.3-0.6,9.1-1.6c0-0.1-0.1-0.2-0.1-0.3c-0.2-0.5-0.4-1-0.7-1.6c-0.2-0.6-0.5-1.3-0.8-2
	c-0.3-0.7-0.6-1.4-0.9-2.2c-0.3-0.8-0.6-1.6-0.9-2.4c-0.3-0.8-0.6-1.7-0.9-2.5c0,0,0,0,0,0c0.6,0.4,1.1,0.7,1.7,1.1
	c0.8,0.5,1.6,1,2.5,1.5c0.8,0.5,1.7,1,2.5,1.5c0.8,0.5,1.7,1,2.5,1.4c0.8,0.5,1.6,0.9,2.3,1.3c0.1,0,0.1,0.1,0.2,0.1
	c5.1-4,8.7-9.8,9.8-16.4c-0.1,0-0.2,0-0.4,0c-0.5-0.1-1.1-0.1-1.7-0.2c-0.6-0.1-1.4-0.2-2.1-0.3c-0.7-0.1-1.5-0.2-2.4-0.4
	c-0.8-0.1-1.7-0.3-2.5-0.4c-0.9-0.2-1.8-0.3-2.6-0.5c0,0,0,0,0,0c0.6-0.3,1.2-0.6,1.8-0.9C199.9,132.2,200.7,131.7,201.6,131.3z"/>
</svg>
