<?xml version="1.0" encoding="utf-8"?>
<!-- Generator: Adobe Illustrator 23.1.0, SVG Export Plug-In . SVG Version: 6.00 Build 0)  -->
<svg version="1.1" id="Capa_1" xmlns="http://www.w3.org/2000/svg" xmlns:xlink="http://www.w3.org/1999/xlink" x="0px" y="0px"
	 viewBox="0 0 512 512" style="enable-background:new 0 0 512 512;" xml:space="preserve">
<style type="text/css">
	.st0{fill:#593459;}
</style>
<g>
	<g>
		<rect x="128" y="93.9" class="st0" width="221.9" height="25.6"/>
	</g>
</g>
<g>
	<g>
		<rect x="162.1" y="187.7" class="st0" width="51.2" height="17.1"/>
	</g>
</g>
<g>
	<g>
		<path class="st0" d="M369.9,246.2c-1.8-1.8-2.8-4.2-2.8-6.8c0-2.6,1-5,2.8-6.8l6.6-6.6L320,209l10.8,36l6.1,20.4l6.2-6.2
			c2.2-2.2,5-3.3,7.9-3.3c2.9,0,5.7,1.1,7.9,3.3l18.8,18.8l12.1-12.1L369.9,246.2z"/>
	</g>
</g>
<g>
	<g>
		<path class="st0" d="M128,136.5v102.4h183.1c-2.6-8.8-5.3-17.6-7.9-26.4c-1-3.3-2-6.6-3-9.8c-1.3-4.2-2.7-8.5,0.7-12.2
			c0.1-0.1,0.2-0.2,0.3-0.3c4.3-4.3,10.1-1.6,15.1-0.2c5.5,1.7,11,3.3,16.5,5c5.7,1.7,11.3,3.4,17,5.1v-63.6L128,136.5L128,136.5z
			 M230.4,213.3c0,4.7-3.8,8.5-8.5,8.5h-68.3c-4.7,0-8.5-3.8-8.5-8.5v-34.1c0-4.7,3.8-8.5,8.5-8.5h68.3c4.7,0,8.5,3.8,8.5,8.5
			L230.4,213.3L230.4,213.3z"/>
	</g>
</g>
<g>
	<g>
		<path class="st0" d="M469.3,332.8H42.7H0v34.1c0,18.8,15.3,34.1,34.1,34.1h170.2c-2,33.8-16.1,51.2-42.3,51.2h-17.1
			c-14.1,0-25.6,11.5-25.6,25.6s11.5,25.6,25.6,25.6h221.9c14.1,0,25.6-11.5,25.6-25.6s-11.5-25.6-25.6-25.6h-17.1
			c-26.1,0-40.2-17.4-42.3-51.2h170.2c18.8,0,34.1-15.3,34.1-34.1v-34.1H469.3z M230.4,349.9h51.2c4.7,0,8.5,3.8,8.5,8.5
			s-3.8,8.5-8.5,8.5h-51.2c-4.7,0-8.5-3.8-8.5-8.5S225.7,349.9,230.4,349.9z M308.3,452.3H203.7c10.5-11.6,16.7-29,17.9-51.2h68.7
			C291.6,423.3,297.8,440.6,308.3,452.3z"/>
	</g>
</g>
<g>
	<g>
		<path class="st0" d="M51.2,59.7v256h409.6v-256H51.2z M407.8,272l-24.1,24.1c-1.6,1.6-3.8,2.5-6,2.5s-4.4-0.9-6-2.5L351,275.6
			l-12.1,12.1c-2.1,2.1-5.2,3-8.1,2.2c-2.9-0.7-5.2-2.9-6.1-5.8l-8.4-28H119.5c-4.7,0-8.5-3.8-8.5-8.5V128V85.3
			c0-4.7,3.8-8.5,8.5-8.5h238.9c4.7,0,8.5,3.8,8.5,8.5V128v77.3l28.1,8.4c2.9,0.9,5.1,3.2,5.8,6.1s-0.1,6-2.2,8.1l-11.5,11.5
			l20.6,20.6C411.1,263.3,411.1,268.7,407.8,272z"/>
	</g>
</g>
<g>
	<g>
		<path class="st0" d="M477.9,8.5H34.1C15.3,8.5,0,23.9,0,42.7v273.1h34.1V51.2c0-4.7,3.8-8.5,8.5-8.5h426.7c4.7,0,8.5,3.8,8.5,8.5
			v264.5H512V42.7C512,23.9,496.7,8.5,477.9,8.5z"/>
	</g>
</g>
</svg>
