<svg height="464pt" viewBox="0 0 464 464" width="464pt" xmlns="http://www.w3.org/2000/svg"><path d="m96 192h16v32h-16zm0 0"/><path d="m128 192h16v32h-16zm0 0"/><path d="m160 192h16v32h-16zm0 0"/><path d="m192 192h208v32h-208zm0 0"/><path d="m432 0h-400v48h400zm-368 32h-16v-16h16zm32 0h-16v-16h16zm32 0h-16v-16h16zm0 0"/><path d="m320 432h-176v16h-32v16h240v-16h-32zm0 0"/><path d="m0 392c0 13.230469 10.769531 24 24 24h416c13.230469 0 24-10.769531 24-24v-8h-464zm0 0"/><path d="m448 129.472656v222.527344h-432v-222.527344c-9.289062 3.3125-16 12.113282-16 22.527344v216h464v-216c0-10.414062-6.710938-19.214844-16-22.527344zm0 0"/><path d="m64 192h16v32h-16zm0 0"/><path d="m432 64h-400v272h400zm-336 80h96v16h-96zm-32 0h16v16h-16zm16 128h-16v-16h16zm112 0h-96v-16h96zm224-32h-368v-64h368zm0 0"/></svg>