<?xml version="1.0" encoding="utf-8"?>
<!-- Generator: Adobe Illustrator 23.1.0, SVG Export Plug-In . SVG Version: 6.00 Build 0)  -->
<svg version="1.1" id="Calque_1" xmlns="http://www.w3.org/2000/svg" xmlns:xlink="http://www.w3.org/1999/xlink" x="0px" y="0px"
	 viewBox="0 0 448 448" style="enable-background:new 0 0 448 448;" xml:space="preserve">
<style type="text/css">
	.st0{fill:#593459;}
</style>
<path class="st0" d="M120,356c0,8.8-7.2,16-16,16s-16-7.2-16-16s7.2-16,16-16S120,347.2,120,356z"/>
<path class="st0" d="M96,132h16v128h8V116H88v144h8V132z"/>
<path class="st0" d="M264,276c0,4.4-3.6,8-8,8s-8-3.6-8-8s3.6-8,8-8S264,271.6,264,276z"/>
<path class="st0" d="M296,212h96v-96h-96V212z M304,124h80v80h-80V124z"/>
<path class="st0" d="M320,140h48v48h-48V140z"/>
<path class="st0" d="M200,276c0,4.4-3.6,8-8,8s-8-3.6-8-8s3.6-8,8-8S200,271.6,200,276z"/>
<path class="st0" d="M0,28v416h448V28h-56v16c0,4.4-3.6,8-8,8h-96c-4.4,0-8-3.6-8-8V28h-16v8c0,4.4-3.6,8-8,8h-32c-4.4,0-8-3.6-8-8
	v-8h-16v16c0,4.4-3.6,8-8,8h-64c-4.4,0-8-3.6-8-8V28H0z M32,44c8.8,0,16,7.2,16,16s-7.2,16-16,16s-16-7.2-16-16S23.2,44,32,44z
	 M32,428c-8.8,0-16-7.2-16-16s7.2-16,16-16s16,7.2,16,16S40.8,428,32,428z M56,276H40v-16h16V276z M56,244H40V132h16V244z M56,116
	H40v-16h16V116z M104,388c-17.7,0-32-14.3-32-32s14.3-32,32-32s32,14.3,32,32S121.7,388,104,388z M320,284v16h-16v-16H320z M304,276
	v-16h16v16H304z M416,340v16H256v-16H416z M344,284v16h-16v-16H344z M328,276v-16h16v16H328z M368,284v16h-16v-16H368z M352,276v-16
	h16v16H352z M392,284v16h-16v-16H392z M376,276v-16h16v16H376z M336,364h80v16h-80V364z M416,428c-8.8,0-16-7.2-16-16s7.2-16,16-16
	s16,7.2,16,16S424.8,428,416,428z M416,44c8.8,0,16,7.2,16,16s-7.2,16-16,16s-16-7.2-16-16S407.2,44,416,44z M280,100h128v128H280
	V100z M280,276c0,13.3-10.7,24-24,24s-24-10.7-24-24s10.7-24,24-24S280,262.7,280,276z M216,108h32v16h-32V108z M216,140h32v16h-32
	V140z M216,172h32v16h-32V172z M216,204h32v16h-32V204z M168,108h32v16h-32V108z M168,140h32v16h-32V140z M168,172h32v16h-32V172z
	 M168,204h32v16h-32V204z M192,252c13.3,0,24,10.7,24,24s-10.7,24-24,24s-24-10.7-24-24S178.7,252,192,252z M160,340h80v16h-80V340z
	 M160,364h160v16H160V364z M136,100v176H72V100H136z"/>
<path class="st0" d="M184,4h-48v32h48V4z"/>
<path class="st0" d="M376,4h-80v32h80V4z"/>
<path class="st0" d="M248,12h-16v16h16V12z"/>
</svg>
