<?xml version="1.0" encoding="utf-8"?>
<!-- Generator: Adobe Illustrator 23.1.0, SVG Export Plug-In . SVG Version: 6.00 Build 0)  -->
<svg version="1.1" id="Capa_1" xmlns="http://www.w3.org/2000/svg" xmlns:xlink="http://www.w3.org/1999/xlink" x="0px" y="0px"
	 viewBox="0 0 29 29" style="enable-background:new 0 0 29 29;" xml:space="preserve">
<style type="text/css">
	.st0{fill:#593459;}
</style>
<g>
	<g>
		<path class="st0" d="M13.2,14.1h2.6c0-0.7-0.6-1.3-1.3-1.3S13.2,13.4,13.2,14.1z"/>
		<path class="st0" d="M14.5,10.2c2.1,0,3.9,1.7,3.9,3.9h5.8c0-5.3-4.3-9.7-9.7-9.7s-9.7,4.3-9.7,9.7h5.8
			C10.6,12,12.4,10.2,14.5,10.2z"/>
		<path class="st0" d="M27.8,15.3H1.2c-0.6,0-1.2,0.5-1.2,1.2v7c0,0.6,0.5,1.2,1.2,1.2h26.7c0.6,0,1.2-0.5,1.2-1.2v-7
			C29,15.8,28.5,15.3,27.8,15.3z M27.3,22.9c0,0.2-0.2,0.4-0.4,0.4h-2.4c-0.2,0-0.4-0.2-0.4-0.4v-0.3c0-0.2,0.2-0.4,0.4-0.4h2.4
			c0.2,0,0.4,0.2,0.4,0.4V22.9z M27.3,20.5c0,0.3-0.3,0.6-0.6,0.6H2.3c-0.3,0-0.6-0.3-0.6-0.6V17c0-0.3,0.3-0.6,0.6-0.6h24.4
			c0.3,0,0.6,0.3,0.6,0.6V20.5z"/>
	</g>
</g>
</svg>
