<?xml version="1.0" encoding="utf-8"?>
<!-- Generator: Adobe Illustrator 23.1.0, SVG Export Plug-In . SVG Version: 6.00 Build 0)  -->
<svg version="1.1" id="Capa_1" xmlns="http://www.w3.org/2000/svg" xmlns:xlink="http://www.w3.org/1999/xlink" x="0px" y="0px"
	 viewBox="0 0 106.2 106.2" style="enable-background:new 0 0 106.2 106.2;" xml:space="preserve">
<style type="text/css">
	.st0{fill:#593459;}
</style>
<g>
	<path class="st0" d="M71.3,0H34.8c-2.8,0-5,2.2-5,5v96.2c0,2.8,2.2,5,5,5h36.5c2.8,0,5-2.2,5-5V5C76.3,2.2,74.1,0,71.3,0z
		 M72.6,100.7c0,1.1-0.9,1.9-1.9,1.9H35.4c-1.1,0-2.4-0.9-2.4-1.9l-0.5-3.4h40.6L72.6,100.7z M71.8,25.1v4.6H33.6v-4.6H71.8z
		 M33.6,18.5v-4.6h38.2v4.6H33.6z M37.2,71c-1.6,0-2.8-1.3-2.8-2.8s1.3-2.8,2.8-2.8s2.8,1.3,2.8,2.8S38.7,71,37.2,71z M39.5,75.8
		c0,1.3-1,2.3-2.3,2.3s-2.3-1-2.3-2.3c0-1.3,1-2.3,2.3-2.3S39.5,74.5,39.5,75.8z M32.5,8.9L33,5.5c0-1.1,0.9-1.9,1.9-1.9h35.2
		c1.1,0,2.4,0.9,2.4,1.9L73,8.9H32.5z"/>
</g>
</svg>
