<svg height="512pt" viewBox="0 -48 512 512" width="512pt" xmlns="http://www.w3.org/2000/svg"><path d="m447.664062 5.703125c-1.015624-3.382813-4.136718-5.703125-7.664062-5.703125h-368c-3.527344 0-6.648438 2.320312-7.664062 5.703125l-41.871094 139.570313 466.703125-1.21875zm-343.664062 42.296875h-16v-16h16zm278.105469 61.167969c-1.519531 1.800781-3.753907 2.832031-6.105469 2.832031h-240c-2.566406 0-4.984375-1.230469-6.496094-3.328125-1.503906-2.085937-1.910156-4.769531-1.097656-7.207031l16-48c1.089844-3.265625 4.144531-5.464844 7.59375-5.464844h216c3.910156 0 7.246094 2.832031 7.886719 6.679688l8 48c.394531 2.320312-.261719 4.695312-1.78125 6.488281zm41.894531-61.167969h-16v-16h16zm0 0"/><path d="m157.769531 64-10.664062 32h219.445312l-5.328125-32zm0 0"/><path d="m136 208v16h17.457031c2.128907 0 4.160157.839844 5.65625 2.34375l30.542969 30.542969c1.503906 1.503906 2.34375 3.539062 2.34375 5.65625v17.457031h16v-28.6875l-43.3125-43.3125zm0 0"/><path d="m136 318.863281v17.136719h14.144531l25.855469-25.855469v-14.144531h-17.136719c-2.910156 11.191406-11.671875 19.953125-22.863281 22.863281zm0 0"/><path d="m64 262.542969c0-2.117188.839844-4.160157 2.34375-5.65625l30.542969-30.542969c1.503906-1.503906 3.539062-2.34375 5.65625-2.34375h17.457031v-16h-28.6875l-43.3125 43.3125v28.6875h16zm0 0"/><path d="m268.28125 320-12.28125 18.425781v29.574219h96v-29.574219l-12.28125-18.425781zm27.71875 32h-24v-16h24zm40 0h-24v-16h24zm0 0"/><path d="m158.863281 280h17.136719v-14.144531l-25.855469-25.855469h-14.144531v17.136719c11.191406 2.910156 19.953125 11.671875 22.863281 22.863281zm0 0"/><path d="m403.3125 336-3.3125 3.320312v12.679688h32v-12.679688l-3.3125-3.320312zm0 0"/><path d="m192 313.457031c0 2.117188-.839844 4.160157-2.34375 5.65625l-30.542969 30.542969c-1.503906 1.503906-3.539062 2.34375-5.65625 2.34375h-17.457031v16h28.6875l43.3125-43.3125v-28.6875h-16zm0 0"/><path d="m96.886719 349.65625-30.542969-30.542969c-1.503906-1.503906-2.34375-3.539062-2.34375-5.65625v-17.457031h-16v28.6875l43.3125 43.3125h28.6875v-16h-17.457031c-2.117188 0-4.152344-.839844-5.65625-2.34375zm0 0"/><path d="m97.136719 296h-17.136719v14.144531l25.855469 25.855469h14.144531v-17.136719c-11.191406-2.910156-19.953125-11.671875-22.863281-22.863281zm0 0"/><path d="m144 288c0 8.835938-7.164062 16-16 16s-16-7.164062-16-16 7.164062-16 16-16 16 7.164062 16 16zm0 0"/><path d="m496.398438 160.039062-486.710938 1.265626c-5.6875 2.457031-9.6875 8.109374-9.6875 14.695312v224c0 8.824219 7.175781 16 16 16h480c8.824219 0 16-7.175781 16-16v-224c0-8.6875-6.96875-15.742188-15.601562-15.960938zm-464.398438 31.960938h16v16h-16zm16 192h-16v-16h16zm176-56c0 2.121094-.839844 4.160156-2.34375 5.65625l-48 48c-1.496094 1.503906-3.527344 2.34375-5.65625 2.34375h-80c-2.128906 0-4.160156-.839844-5.65625-2.34375l-48-48c-1.503906-1.496094-2.34375-3.535156-2.34375-5.65625v-80c0-2.121094.839844-4.160156 2.34375-5.65625l48-48c1.496094-1.503906 3.527344-2.34375 5.65625-2.34375h80c2.128906 0 4.160156.839844 5.65625 2.34375l48 48c1.503906 1.496094 2.34375 3.535156 2.34375 5.65625zm144 48c0 4.414062-3.574219 8-8 8h-112c-4.425781 0-8-3.585938-8-8v-40c0-1.574219.472656-3.128906 1.34375-4.441406l16-24c1.488281-2.222656 3.984375-3.558594 6.65625-3.558594h80c2.671875 0 5.167969 1.335938 6.65625 3.558594l16 24c.871094 1.3125 1.34375 2.867187 1.34375 4.441406zm80-16c0 4.414062-3.574219 8-8 8h-48c-4.425781 0-8-3.585938-8-8v-24c0-2.121094.839844-4.160156 2.34375-5.65625l8-8c1.496094-1.503906 3.527344-2.34375 5.65625-2.34375h32c2.128906 0 4.160156.839844 5.65625 2.34375l8 8c1.503906 1.503906 2.34375 3.535156 2.34375 5.65625zm0-88c0 8.824219-7.175781 16-16 16h-176c-8.824219 0-16-7.175781-16-16v-64c0-8.824219 7.175781-16 16-16h176c8.824219 0 16 7.175781 16 16zm32 112h-16v-16h16zm0-176h-16v-16h16zm0 0"/><path d="m352 208h16v64h-16zm0 0"/><path d="m256 208h16v64h-16zm0 0"/><path d="m416 208h16v64h-16zm0 0"/><path d="m80 280h17.136719c2.910156-11.191406 11.671875-19.953125 22.863281-22.863281v-17.136719h-14.144531l-25.855469 25.855469zm0 0"/><path d="m384 208h16v64h-16zm0 0"/><path d="m288 208h16v64h-16zm0 0"/><path d="m320 208h16v64h-16zm0 0"/></svg>