<?xml version="1.0" encoding="utf-8"?>
<!-- Generator: Adobe Illustrator 23.1.0, SVG Export Plug-In . SVG Version: 6.00 Build 0)  -->
<svg version="1.1" id="Calque_1" xmlns="http://www.w3.org/2000/svg" xmlns:xlink="http://www.w3.org/1999/xlink" x="0px" y="0px"
	 viewBox="0 0 512 512" style="enable-background:new 0 0 512 512;" xml:space="preserve">
<style type="text/css">
	.st0{fill:#593459;}
</style>
<path class="st0" d="M447.7,53.7c-1-3.4-4.1-5.7-7.7-5.7H72c-3.5,0-6.6,2.3-7.7,5.7L22.5,193.3l466.7-1.2L447.7,53.7z M104,96H88V80
	h16V96z M382.1,157.2c-1.5,1.8-3.8,2.8-6.1,2.8H136c-2.6,0-5-1.2-6.5-3.3c-1.5-2.1-1.9-4.8-1.1-7.2l16-48c1.1-3.3,4.1-5.5,7.6-5.5
	h216c3.9,0,7.2,2.8,7.9,6.7l8,48C384.3,153,383.6,155.4,382.1,157.2z M424,96h-16V80h16V96z"/>
<path class="st0" d="M157.8,112l-10.7,32h219.4l-5.3-32H157.8z"/>
<path class="st0" d="M136,256v16h17.5c2.1,0,4.2,0.8,5.7,2.3l30.5,30.5c1.5,1.5,2.3,3.5,2.3,5.7V328h16v-28.7L164.7,256H136z"/>
<path class="st0" d="M136,366.9V384h14.1l25.9-25.9V344h-17.1C156,355.2,147.2,364,136,366.9z"/>
<path class="st0" d="M64,310.5c0-2.1,0.8-4.2,2.3-5.7l30.5-30.5c1.5-1.5,3.5-2.3,5.7-2.3H120v-16H91.3L48,299.3V328h16V310.5z"/>
<path class="st0" d="M268.3,368L256,386.4V416h96v-29.6L339.7,368H268.3z M296,400h-24v-16h24V400z M336,400h-24v-16h24V400z"/>
<path class="st0" d="M158.9,328H176v-14.1L150.1,288H136v17.1C147.2,308,156,316.8,158.9,328z"/>
<path class="st0" d="M403.3,384l-3.3,3.3V400h32v-12.7l-3.3-3.3H403.3z"/>
<path class="st0" d="M192,361.5c0,2.1-0.8,4.2-2.3,5.7l-30.5,30.5c-1.5,1.5-3.5,2.3-5.7,2.3H136v16h28.7l43.3-43.3V344h-16V361.5z"
	/>
<path class="st0" d="M96.9,397.7l-30.5-30.5c-1.5-1.5-2.3-3.5-2.3-5.7V344H48v28.7L91.3,416H120v-16h-17.5
	C100.4,400,98.4,399.2,96.9,397.7z"/>
<path class="st0" d="M97.1,344H80v14.1l25.9,25.9H120v-17.1C108.8,364,100,355.2,97.1,344z"/>
<path class="st0" d="M144,336c0,8.8-7.2,16-16,16s-16-7.2-16-16s7.2-16,16-16S144,327.2,144,336z"/>
<path class="st0" d="M496.4,208L9.7,209.3C4,211.8,0,217.4,0,224v224c0,8.8,7.2,16,16,16h480c8.8,0,16-7.2,16-16V224
	C512,215.3,505,208.3,496.4,208z M32,240h16v16H32V240z M48,432H32v-16h16V432z M224,376c0,2.1-0.8,4.2-2.3,5.7l-48,48
	c-1.5,1.5-3.5,2.3-5.7,2.3H88c-2.1,0-4.2-0.8-5.7-2.3l-48-48c-1.5-1.5-2.3-3.5-2.3-5.7v-80c0-2.1,0.8-4.2,2.3-5.7l48-48
	c1.5-1.5,3.5-2.3,5.7-2.3h80c2.1,0,4.2,0.8,5.7,2.3l48,48c1.5,1.5,2.3,3.5,2.3,5.7V376z M368,424c0,4.4-3.6,8-8,8H248
	c-4.4,0-8-3.6-8-8v-40c0-1.6,0.5-3.1,1.3-4.4l16-24c1.5-2.2,4-3.6,6.7-3.6h80c2.7,0,5.2,1.3,6.7,3.6l16,24c0.9,1.3,1.3,2.9,1.3,4.4
	V424z M448,408c0,4.4-3.6,8-8,8h-48c-4.4,0-8-3.6-8-8v-24c0-2.1,0.8-4.2,2.3-5.7l8-8c1.5-1.5,3.5-2.3,5.7-2.3h32
	c2.1,0,4.2,0.8,5.7,2.3l8,8c1.5,1.5,2.3,3.5,2.3,5.7V408z M448,320c0,8.8-7.2,16-16,16H256c-8.8,0-16-7.2-16-16v-64
	c0-8.8,7.2-16,16-16h176c8.8,0,16,7.2,16,16V320z M480,432h-16v-16h16V432z M480,256h-16v-16h16V256z"/>
<path class="st0" d="M352,256h16v64h-16V256z"/>
<path class="st0" d="M256,256h16v64h-16V256z"/>
<path class="st0" d="M416,256h16v64h-16V256z"/>
<path class="st0" d="M80,328h17.1c2.9-11.2,11.7-20,22.9-22.9V288h-14.1L80,313.9V328z"/>
<path class="st0" d="M384,256h16v64h-16V256z"/>
<path class="st0" d="M288,256h16v64h-16V256z"/>
<path class="st0" d="M320,256h16v64h-16V256z"/>
</svg>
