<?xml version="1.0" encoding="utf-8"?>
<!-- Generator: Adobe Illustrator 23.1.0, SVG Export Plug-In . SVG Version: 6.00 Build 0)  -->
<svg version="1.1" id="Capa_1" xmlns="http://www.w3.org/2000/svg" xmlns:xlink="http://www.w3.org/1999/xlink" x="0px" y="0px"
	 viewBox="0 0 262.3 262.3" style="enable-background:new 0 0 262.3 262.3;" xml:space="preserve">
<style type="text/css">
	.st0{fill:#593459;}
</style>
<path class="st0" d="M259.8,84.4H2.5c-1.4,0-2.5,1.1-2.5,2.5v24.5c0,1.4,1.1,2.5,2.5,2.5h10.8c3,0,5.5,2.5,5.5,5.5s-2.5,5.5-5.5,5.5
	H2.5c-1.4,0-2.5,1.1-2.5,2.5v9.5c0,1.4,1.1,2.5,2.5,2.5h10.8c3,0,5.5,2.5,5.5,5.5s-2.5,5.5-5.5,5.5H2.5c-1.4,0-2.5,1.1-2.5,2.5v12
	c0,1.4,1.1,2.5,2.5,2.5v10.6h122.8v-10.6H137v10.6h122.8v-10.6c1.4,0,2.5-1.1,2.5-2.5v-12c0-1.4-1.1-2.5-2.5-2.5H249
	c-3,0-5.5-2.5-5.5-5.5s2.5-5.5,5.5-5.5h10.8c1.4,0,2.5-1.1,2.5-2.5v-9.5c0-1.4-1.1-2.5-2.5-2.5H249c-3,0-5.5-2.5-5.5-5.5
	s2.5-5.5,5.5-5.5h10.8c1.4,0,2.5-1.1,2.5-2.5V86.9C262.3,85.5,261.2,84.4,259.8,84.4z M18,173.9h-6.1v-9H18V173.9z M244.3,164.9h6.1
	v9h-6.1V164.9z M30.2,173.9h-6.1v-9h6.1V173.9z M42.5,173.9h-6.1v-9h6.1V173.9z M54.7,173.9h-6.1v-9h6.1V173.9z M67,173.9h-6.1v-9
	H67V173.9z M79.2,173.9h-6.1v-9h6.1V173.9z M91.5,173.9h-6.1v-9h6.1V173.9z M103.7,173.9h-6.1v-9h6.1V173.9z M116,173.9h-6.1v-9h6.1
	V173.9z M36.9,145.5v-42.9h188.4v42.9H36.9z M152.5,173.9h-6.1v-9h6.1V173.9z M164.7,173.9h-6.1v-9h6.1V173.9z M177,173.9h-6.1v-9
	h6.1V173.9z M189.2,173.9h-6.1v-9h6.1V173.9z M201.5,173.9h-6.1v-9h6.1V173.9z M213.7,173.9h-6.1v-9h6.1V173.9z M226,173.9h-6.1v-9
	h6.1V173.9z M238.2,173.9h-6.1v-9h6.1V173.9z M177.8,124.3h10.6v15h-4.7V136c-2.3,2.3-5.1,3.5-8.2,3.5c-1.9,0-3.7-0.4-5.4-1.2
	c-1.7-0.8-3.2-1.8-4.4-3.2c-1.3-1.3-2.2-2.9-3-4.8c-0.7-1.8-1.1-3.8-1.1-5.9c0-2,0.4-3.9,1.1-5.7c0.7-1.8,1.7-3.3,3-4.7
	c1.3-1.3,2.8-2.4,4.5-3.2c1.7-0.8,3.6-1.2,5.6-1.2c2.7,0,5.1,0.6,7.1,1.7c2,1.2,3.4,2.7,4.4,4.7l-4.2,3.1c-0.7-1.5-1.8-2.6-3.1-3.3
	c-1.3-0.8-2.8-1.2-4.3-1.2c-1.2,0-2.4,0.3-3.4,0.8c-1,0.5-1.9,1.2-2.6,2.1c-0.7,0.9-1.3,2-1.7,3.1c-0.4,1.2-0.6,2.4-0.6,3.8
	c0,1.4,0.2,2.7,0.7,3.9c0.4,1.2,1,2.2,1.8,3.1c0.8,0.9,1.7,1.6,2.7,2.1c1.1,0.5,2.2,0.8,3.4,0.8c2.8,0,5.4-1.3,7.7-4v-2.1h-5.9
	L177.8,124.3L177.8,124.3z M211.4,124.3c1.4-0.6,2.4-1.5,3.1-2.8c0.7-1.3,1.1-2.6,1.1-4c0-0.9-0.2-1.8-0.5-2.7
	c-0.3-0.9-0.8-1.7-1.3-2.4c-0.6-0.7-1.3-1.3-2.1-1.7c-0.8-0.4-1.7-0.7-2.8-0.7h-15.7v29.3h14.1c1.3,0,2.5-0.2,3.6-0.5
	c1.1-0.3,2.1-0.8,3-1.4c0.9-0.6,1.5-1.4,2-2.3c0.5-0.9,0.7-2,0.7-3.3c0-1.9-0.5-3.5-1.5-4.8C214.4,125.7,213,124.8,211.4,124.3z
	 M198.9,114.9h7.8c0.9,0,1.7,0.3,2.3,1c0.6,0.7,0.9,1.6,0.9,2.7c0,1.2-0.3,2.1-1,2.7c-0.7,0.7-1.5,1-2.5,1h-7.6L198.9,114.9
	L198.9,114.9z M210.8,132.2c-0.2,0.5-0.5,0.9-0.8,1.2c-0.3,0.3-0.7,0.6-1.2,0.8c-0.5,0.2-0.9,0.3-1.5,0.3h-8.4v-7.7h8.7
	c0.5,0,0.9,0.1,1.4,0.3s0.8,0.5,1.1,0.8c0.3,0.4,0.5,0.8,0.7,1.3c0.2,0.5,0.3,1,0.3,1.5C211.1,131.2,211,131.7,210.8,132.2z"/>
</svg>
