<svg height="448pt" viewBox="0 0 448 448" width="448pt" xmlns="http://www.w3.org/2000/svg"><path d="m156.945312 248h134.109376l-67.054688-134.113281zm75.054688-16h-16v-16h16zm0-32h-16v-48h16zm0 0"/><path d="m175.0625 368-6 48h109.875l-6-48zm0 0"/><path d="m448 64h-448v224h448zm-137.191406 196.207031c-1.460938 2.359375-4.035156 3.792969-6.808594 3.792969h-160c-2.773438 0-5.347656-1.433594-6.808594-3.792969-1.457031-2.355469-1.589844-5.300781-.351562-7.78125l80-160c1.503906-2.523437 4.222656-4.070312 7.160156-4.070312s5.65625 1.546875 7.160156 4.070312l80 160c1.238282 2.480469 1.105469 5.425781-.351562 7.78125zm0 0"/><path d="m448 24c0-13.253906-10.746094-24-24-24h-400c-13.253906 0-24 10.746094-24 24v24h448zm-400 8h-16v-16h16zm32 0h-16v-16h16zm32 0h-16v-16h16zm0 0"/><path d="m448 304h-448v24c0 13.253906 10.746094 24 24 24h400c13.253906 0 24-10.746094 24-24zm-32 32h-16v-16h16zm0 0"/><path d="m128 440c0 4.417969 3.582031 8 8 8h176c4.417969 0 8-3.582031 8-8s-3.582031-8-8-8h-176c-4.417969 0-8 3.582031-8 8zm0 0"/></svg>