<?xml version="1.0" encoding="utf-8"?>
<!-- Generator: Adobe Illustrator 23.1.0, SVG Export Plug-In . SVG Version: 6.00 Build 0)  -->
<svg version="1.1" id="Calque_1" xmlns="http://www.w3.org/2000/svg" xmlns:xlink="http://www.w3.org/1999/xlink" x="0px" y="0px"
	 viewBox="0 0 448 448" style="enable-background:new 0 0 448 448;" xml:space="preserve">
<style type="text/css">
	.st0{fill:#593459;}
</style>
<path class="st0" d="M156.9,248h134.1L224,113.9L156.9,248z M232,232h-16v-16h16V232z M232,200h-16v-48h16V200z"/>
<path class="st0" d="M175.1,368l-6,48h109.9l-6-48H175.1z"/>
<path class="st0" d="M448,64H0v224h448V64z M310.8,260.2c-1.5,2.4-4,3.8-6.8,3.8H144c-2.8,0-5.3-1.4-6.8-3.8
	c-1.5-2.4-1.6-5.3-0.4-7.8l80-160c1.5-2.5,4.2-4.1,7.2-4.1s5.7,1.5,7.2,4.1l80,160C312.4,254.9,312.3,257.9,310.8,260.2z"/>
<path class="st0" d="M448,24c0-13.3-10.7-24-24-24H24C10.7,0,0,10.7,0,24v24h448V24z M48,32H32V16h16V32z M80,32H64V16h16V32z
	 M112,32H96V16h16V32z"/>
<path class="st0" d="M448,304H0v24c0,13.3,10.7,24,24,24h400c13.3,0,24-10.7,24-24V304z M416,336h-16v-16h16V336z"/>
<path class="st0" d="M128,440c0,4.4,3.6,8,8,8h176c4.4,0,8-3.6,8-8s-3.6-8-8-8H136C131.6,432,128,435.6,128,440z"/>
</svg>
